<svg width="390" height="842" viewBox="0 0 390 842" fill="none" xmlns="http://www.w3.org/2000/svg">
<g clip-path="url(#clip0_661_3854)">
<rect width="1198" height="842" transform="translate(-422)" fill="#111111"/>
<path style="mix-blend-mode:color-dodge" d="M494.445 616.414L314.6 805.742C311.974 808.531 307.541 808.531 304.832 805.906C302.206 803.199 302.206 798.77 304.996 796.145L494.445 616.414Z" fill="url(#paint0_linear_661_3854)"/>
<path style="mix-blend-mode:color-dodge" d="M399.885 710.832C410.72 721.66 397.34 752.668 370.006 779.984C342.591 807.383 311.645 820.754 300.81 809.926C289.975 799.098 303.355 768.09 330.688 740.773C358.104 713.375 389.05 700.004 399.885 710.832Z" fill="url(#paint1_radial_661_3854)"/>
<g style="mix-blend-mode:screen">
<path d="M-429.931 370.819C-429.733 370.06 -429.535 369.301 -429.336 368.542C-427.925 363.531 -426.364 358.52 -423.615 354.117C-420.346 348.878 -415.517 344.854 -410.39 341.438C-394.936 331.037 -376.213 325.798 -357.712 326.557C-346.642 327.013 -360.164 326.937 -349.094 326.406C-303.251 337.946 -253.396 331.72 -211.64 309.247C-193.586 299.605 -176.943 286.927 -157.774 279.638C-138.233 272.198 -117.058 270.755 -96.1799 269.541C-5.53522 264.378 85.481 263.771 176.2 267.643C222.711 269.617 269.371 272.805 315.659 267.87C330.073 266.276 348.499 258.684 346.493 244.107C344.71 231.58 329.33 227.481 317.071 225.886C269.817 219.585 223.306 207.058 179.098 188.761C167.21 183.826 153.91 176.613 151.384 163.707C148.189 147.688 163.346 134.553 177.017 126.05C266.473 70.4001 367.743 40.2594 466.263 6.47461C515.003 -10.228 560.4 -34.5227 612.112 -34.3709C645.101 -34.295 678.089 -31.334 710.632 -25.4122C631.578 -4.07841 553.862 22.418 478.151 54.0011C446.425 67.2114 413.808 82.1678 391.816 109.044C387.878 113.903 384.088 119.825 384.831 126.126C385.946 134.781 394.787 139.792 402.737 143.056C442.487 159.303 486.398 165.225 523.548 187.091C536.921 194.986 550.444 207.286 549.998 223.077C548.586 270.148 468.789 286.016 435.429 292.165C279.104 320.863 118.618 311.221 -39.787 299.53C-62.3739 297.859 -85.5552 296.189 -107.028 303.553C-140.611 315.017 -163.866 346.297 -194.775 363.986C-215.504 375.906 -239.131 381.372 -262.535 385.32C-293.741 390.711 -325.318 393.747 -356.969 394.583C-374.429 394.962 -373.464 398.606 -390.404 394.431C-404.743 390.862 -419.009 386.307 -433.571 385.396C-432.482 380.537 -431.268 375.678 -429.931 370.819Z" fill="url(#paint2_linear_661_3854)"/>
</g>
<g style="mix-blend-mode:screen">
<path d="M-111.708 839.404C-96.9973 841.15 -82.2118 842.137 -67.352 841.985C-43.4278 841.757 -19.3549 838.341 3.30628 830.369C25.2988 822.625 39.9356 808.124 58.7333 794.61C97.5173 766.747 139.199 743.136 182.441 723.321C273.086 681.868 370.492 657.421 468.64 641.933C514.26 634.721 564.783 626.977 594.28 590.687C634.327 541.49 616.718 462.76 652.679 410.374C676.975 374.919 720.068 359.507 760.338 346.221C772.3 346.221 789.24 336.579 800.757 332.783C816.013 327.722 831.294 322.66 846.599 317.599C860.939 312.816 875.427 308.337 889.693 303.326C901.655 299.074 910.199 291.406 922.458 287.686C953.367 278.5 983.012 264.986 1010.35 247.752C924.019 282.827 830.03 292.09 740.352 316.688C651.416 341.059 561.217 385.396 514.632 466.556C494.794 501.176 483.5 541.338 457.719 571.63C429.411 604.884 387.283 621.89 346.196 635.252C235.416 671.467 118.172 691.358 16.3086 748.602C-33.0259 776.237 -78.4226 812.528 -128.797 836.974C-123.101 837.885 -117.405 838.695 -111.708 839.404Z" fill="url(#paint3_linear_661_3854)"/>
</g>
<g style="mix-blend-mode:screen">
<path d="M833.448 222.698C751.794 245.246 654.536 274.628 618.13 361.861C608.917 384.03 603.567 407.489 589.673 427.381C577.191 445.298 560.474 459.799 542.122 471.111C501.109 496.393 453.26 504.744 406.675 512.26C356.969 520.232 307.857 529.874 259.935 545.741C236.828 553.333 214.464 562.672 191.877 571.858C171.296 580.209 150.715 588.713 131.026 599.19C111.337 609.667 92.9849 622.27 76.4906 637.454C60.2934 652.334 45.5822 668.809 30.4252 684.828C14.8225 701.227 -1.37476 717.323 -20.0238 730.153C-39.5644 743.515 -61.4826 752.398 -84.3667 757.713C-107.399 762.951 -131.026 764.773 -154.579 765.229C-180.212 765.608 -205.92 763.786 -231.404 766.747C-275.464 771.834 -316.254 791.953 -352.214 817.766C-360.907 824.068 -369.377 830.673 -377.699 837.581C-379.333 838.948 -376.956 841.302 -375.321 839.935C-340.029 810.554 -299.982 785.272 -255.254 774.339C-230.141 768.266 -204.657 768.266 -179.024 768.493C-155.471 768.797 -131.918 768.493 -108.588 765.381C-87.0414 762.496 -65.7176 757.333 -45.7312 748.45C-26.1163 739.643 -8.65604 726.965 7.31823 712.388C40.8271 681.868 67.9462 644.287 105.467 618.474C124.042 605.719 144.177 595.697 164.758 586.739C186.527 577.248 208.668 568.138 230.884 559.635C277.544 541.718 326.061 529.266 375.172 520.763C422.575 512.564 471.464 507.705 516.192 488.345C552.227 472.705 586.033 447.196 603.27 410.45C613.375 388.964 618.204 365.505 630.241 344.93C641.163 326.254 655.725 310.159 672.145 296.493C708.923 265.973 754.171 249.118 799.196 235.832C810.861 232.34 822.601 229.151 834.34 225.886C836.346 225.355 835.454 222.09 833.448 222.698Z" fill="#121C22"/>
</g>
<g style="mix-blend-mode:screen">
<path d="M720.365 49.5975C652.976 61.9726 585.81 75.8661 518.941 91.354C485.903 98.9967 452.964 107.044 420.123 115.497C393.896 122.178 365.365 125.367 341.961 140.247C334.085 145.334 320.266 154.748 324.501 166.212C328.067 175.93 342.481 180.03 351.1 182.915C376.436 191.266 403.629 192.557 430.005 194.379C460.022 196.429 490.707 198.023 520.353 203.337C527.337 204.628 534.321 206.222 541.231 208.196C549.775 210.702 560.697 213.359 567.532 219.509C577.86 228.771 575.705 242.589 567.161 251.775C553.713 266.352 532.463 273.185 514.26 279.182C488.701 287.534 462.92 294.746 436.544 300.137C371.978 313.423 305.554 320.104 239.949 324.507C205.771 326.785 171.445 328 137.193 328.303C105.616 328.531 73.9647 327.013 42.3133 327.544C14.154 328.076 -14.5997 330.733 -41.0501 341.286C-67.7234 351.915 -87.7842 371.35 -108.885 390.407C-131.472 410.829 -156.214 425.634 -185.339 434.213C-213.424 442.488 -242.697 445.601 -271.748 447.955C-324.649 452.13 -380.373 453.953 -428.371 479.69C-439.961 485.915 -450.586 493.507 -460.319 502.39C-461.879 503.833 -459.502 506.186 -457.942 504.744C-415.368 465.644 -355.78 457.597 -300.874 453.421C-246.412 449.321 -188.385 447.271 -139.942 418.421C-114.68 403.313 -95.5856 380.309 -72.1814 362.696C-47.9599 344.399 -19.2062 335.819 10.5876 332.707C39.4156 329.67 68.5408 331.036 97.5174 331.492C131.769 331.948 166.021 331.492 200.273 330.049C265.433 327.165 330.742 320.939 395.159 310.917C426.513 306.058 457.793 299.833 488.256 290.874C507.499 285.256 527.114 279.41 545.169 270.679C558.988 263.998 578.38 252.61 577.934 234.465C577.563 222.318 568.796 214.801 558.542 210.702C543.905 204.704 528.451 201.06 512.848 198.782C484.318 194.531 455.193 192.708 426.439 190.735C399.32 188.912 371.012 187.546 345.453 177.297C339.806 175.095 331.336 172.134 328.216 166.44C322.94 156.874 336.463 147.839 342.853 143.664C354.666 135.996 368.04 131.516 381.488 128.024C411.728 120.356 442.19 113.219 472.578 105.779C538.705 89.6837 605.128 75.1069 671.848 62.1244C688.293 58.9358 704.763 55.823 721.257 52.7862C723.337 52.4066 722.446 49.2179 720.365 49.5975Z" fill="#121C22"/>
</g>
</g>
<defs>
<linearGradient id="paint0_linear_661_3854" x1="252.596" y1="760.42" x2="444.292" y2="568.602" gradientUnits="userSpaceOnUse">
<stop stop-color="#FC9A0A"/>
<stop offset="1"/>
</linearGradient>
<radialGradient id="paint1_radial_661_3854" cx="0" cy="0" r="1" gradientUnits="userSpaceOnUse" gradientTransform="translate(346.51 763.778) rotate(-44.9818) scale(62.8543 62.8543)">
<stop offset="0.001" stop-color="white"/>
<stop offset="1"/>
</radialGradient>
<linearGradient id="paint2_linear_661_3854" x1="176.087" y1="1115.61" x2="-164.579" y2="-920.313" gradientUnits="userSpaceOnUse">
<stop offset="0.002"/>
<stop offset="1" stop-color="#20292F"/>
</linearGradient>
<linearGradient id="paint3_linear_661_3854" x1="-128.247" y1="165.667" x2="1585.29" y2="353.364" gradientUnits="userSpaceOnUse">
<stop offset="0.002"/>
<stop offset="1" stop-color="#20292F"/>
</linearGradient>
<clipPath id="clip0_661_3854">
<rect width="1198" height="842" fill="white" transform="translate(-422)"/>
</clipPath>
</defs>
</svg>
