<svg width="1993" height="967" viewBox="0 0 1993 967" fill="none" xmlns="http://www.w3.org/2000/svg">
<g clip-path="url(#clip0_637_3853)">
<rect width="1993" height="967" fill="#111111"/>
<path style="mix-blend-mode:color-dodge" d="M1545.24 707.308L1242 925.26C1237.57 928.471 1230.1 928.471 1225.53 925.449C1221.1 922.333 1221.1 917.233 1225.81 914.212L1545.24 707.308Z" fill="url(#paint0_linear_637_3853)"/>
<path style="mix-blend-mode:color-dodge" d="M1385.8 816.001C1404.07 828.466 1381.51 864.162 1335.42 895.608C1289.2 927.149 1237.02 942.542 1218.75 930.077C1200.48 917.611 1223.04 881.916 1269.13 850.469C1315.35 818.928 1367.53 803.536 1385.8 816.001Z" fill="url(#paint1_radial_637_3853)"/>
<g style="mix-blend-mode:screen">
<path d="M-13.3724 424.581C-13.0383 423.707 -12.7043 422.833 -12.3702 421.959C-9.98991 416.191 -7.35907 410.423 -2.72381 405.353C2.78839 399.323 10.9314 394.691 19.5755 390.758C45.6332 378.784 77.2031 372.753 108.397 373.627C127.064 374.152 104.263 374.064 122.929 373.453C200.225 386.737 284.287 379.571 354.692 353.7C385.135 342.601 413.197 328.005 445.519 319.615C478.466 311.049 514.17 309.389 549.373 307.99C702.212 302.047 855.677 301.348 1008.64 305.805C1087.06 308.078 1165.74 311.749 1243.79 306.068C1268.09 304.232 1299.16 295.492 1295.78 278.712C1292.77 264.291 1266.84 259.571 1246.17 257.736C1166.49 250.482 1088.07 236.061 1013.53 214.997C993.482 209.316 971.057 201.013 966.797 186.155C961.411 167.714 986.967 152.594 1010.02 142.805C1160.85 78.7415 1331.61 44.0439 1497.72 5.15114C1579.9 -14.0768 1656.45 -42.0446 1743.64 -41.8698C1799.27 -41.7824 1854.89 -38.3738 1909.76 -31.5566C1776.46 -6.99739 1645.42 23.505 1517.77 59.8632C1464.27 75.0707 1409.28 92.2884 1372.2 123.228C1365.56 128.821 1359.17 135.639 1360.42 142.893C1362.3 152.856 1377.21 158.625 1390.61 162.383C1457.63 181.086 1531.67 187.903 1594.31 213.075C1616.86 222.164 1639.66 236.323 1638.91 254.502C1636.53 308.69 1501.98 326.956 1445.73 334.035C1182.15 367.072 911.55 355.973 644.459 342.513C606.375 340.59 567.288 338.668 531.083 347.145C474.458 360.343 435.246 396.351 383.13 416.715C348.178 430.437 308.34 436.73 268.877 441.275C216.261 447.48 163.018 450.976 109.65 451.937C80.2098 452.374 81.8384 456.569 53.2752 451.762C29.0966 447.655 5.04337 442.411 -19.511 441.362C-17.6736 435.768 -15.6274 430.175 -13.3724 424.581Z" fill="url(#paint2_linear_637_3853)"/>
</g>
<g style="mix-blend-mode:screen">
<path d="M523.19 964.011C547.995 966.021 572.925 967.157 597.981 966.982C638.32 966.72 678.91 962.787 717.12 953.61C754.202 944.696 778.881 928.002 810.576 912.445C875.971 880.37 946.252 853.188 1019.16 830.377C1172 782.657 1336.24 754.514 1501.73 736.685C1578.65 728.382 1663.84 719.467 1713.58 677.69C1781.1 621.055 1751.41 530.422 1812.04 470.116C1853.01 429.301 1925.67 411.559 1993.57 396.264C2013.74 396.264 2042.3 385.164 2061.72 380.794C2087.44 374.968 2113.21 369.141 2139.02 363.314C2163.2 357.808 2187.62 352.651 2211.68 346.883C2231.85 341.989 2246.25 333.161 2266.93 328.879C2319.04 318.304 2369.03 302.746 2415.13 282.907C2269.56 323.285 2111.08 333.948 1959.87 362.265C1809.91 390.321 1657.83 441.362 1579.28 534.792C1545.83 574.646 1526.79 620.88 1483.32 655.753C1435.58 694.034 1364.55 713.611 1295.27 728.994C1108.49 770.683 910.798 793.582 739.043 859.481C655.859 891.294 579.314 933.071 494.376 961.214C503.981 962.263 513.586 963.195 523.19 964.011Z" fill="url(#paint3_linear_637_3853)"/>
</g>
<g style="mix-blend-mode:screen">
<path d="M2051.57 783.269C2043.93 784.667 2036.54 786.765 2029.65 789.824C2016.62 795.679 2001.46 798.039 1988.43 803.895C1964.26 814.733 1946.59 832.475 1919.91 839.729C1906.5 843.4 1891.85 844.099 1878.19 846.983C1847.37 853.451 1822.94 870.581 1807.16 890.071C1791.25 909.561 1782.6 931.498 1774.21 953.173C1795.26 949.94 1816.8 948.803 1838.23 949.59C1853.76 922.584 1880.45 898.811 1914.27 881.855C1926.92 875.563 1943.58 870.056 1957.37 874.951C1961.62 876.437 1965.01 878.709 1969.27 880.195C1979.66 883.691 1991.94 881.244 2003.22 879.583C2031.15 875.475 2060.72 876.611 2087.53 869.882C2110.83 864.026 2130.25 852.664 2149.04 841.477C2168.58 829.94 2188.13 818.403 2207.67 806.867C2177.19 799.991 2146.7 793.116 2116.22 786.24C2095.8 781.608 2072.75 779.511 2051.57 783.269Z" fill="url(#paint4_linear_637_3853)"/>
</g>
<g style="mix-blend-mode:screen">
<path d="M2116.84 254.065C1979.16 280.023 1815.18 313.846 1753.79 414.268C1738.25 439.789 1729.24 466.795 1705.81 489.694C1684.76 510.32 1656.57 527.013 1625.63 540.036C1556.48 569.14 1475.8 578.754 1397.25 587.407C1313.44 596.583 1230.63 607.683 1149.83 625.95C1110.87 634.69 1073.16 645.44 1035.07 656.015C1000.37 665.629 965.67 675.418 932.471 687.479C899.273 699.54 868.329 714.048 840.518 731.528C813.207 748.659 788.402 767.624 762.846 786.066C736.538 804.944 709.227 823.473 677.782 838.243C644.834 853.625 607.878 863.851 569.292 869.969C530.456 876 490.618 878.097 450.905 878.622C407.685 879.059 364.339 876.961 321.368 880.37C247.079 886.225 178.302 909.386 117.667 939.102C103.01 946.356 88.7284 953.96 74.6974 961.913C71.9413 963.486 75.9501 966.196 78.7062 964.623C138.213 930.799 205.737 901.695 281.154 889.11C323.498 882.118 366.468 882.118 409.689 882.38C449.402 882.729 489.115 882.38 528.452 878.796C564.782 875.475 600.737 869.532 634.436 859.306C667.51 849.168 696.95 834.572 723.884 817.792C780.385 782.657 826.111 739.394 889.376 709.678C920.695 694.995 954.645 683.459 989.347 673.145C1026.05 662.22 1063.39 651.733 1100.84 641.944C1179.52 621.318 1261.32 606.984 1344.13 597.195C1424.06 587.756 1506.49 582.163 1581.91 559.876C1642.67 541.871 1699.67 512.505 1728.73 470.204C1745.77 445.47 1753.91 418.463 1774.21 394.778C1792.63 373.278 1817.18 354.749 1844.87 339.017C1906.88 303.883 1983.17 284.48 2059.09 269.185C2078.76 265.165 2098.55 261.494 2118.35 257.736C2121.73 257.124 2120.23 253.366 2116.84 254.065Z" fill="#121C22"/>
</g>
<g style="mix-blend-mode:screen">
<path d="M1926.17 54.7939C1812.54 69.04 1699.29 85.0341 1586.54 102.864C1530.84 111.662 1475.3 120.926 1419.93 130.657C1375.7 138.348 1327.6 142.019 1288.13 159.149C1274.85 165.005 1251.55 175.842 1258.69 189.039C1264.71 200.227 1289.01 204.946 1303.54 208.267C1346.26 217.881 1392.11 219.367 1436.59 221.465C1487.2 223.824 1538.94 225.66 1588.92 231.778C1600.7 233.264 1612.48 235.099 1624.13 237.371C1638.53 240.256 1656.95 243.315 1668.48 250.394C1685.89 261.057 1682.26 276.963 1667.85 287.539C1645.17 304.319 1609.34 312.185 1578.65 319.09C1535.56 328.704 1492.09 337.007 1447.61 343.212C1338.75 358.507 1226.75 366.198 1116.13 371.267C1058.5 373.889 1000.62 375.288 942.869 375.637C889.627 375.9 836.258 374.152 782.89 374.763C735.41 375.375 686.928 378.434 642.329 390.583C597.354 402.819 563.53 425.193 527.951 447.13C489.867 470.641 448.149 487.683 399.04 497.56C351.686 507.086 302.326 510.67 253.343 513.379C164.146 518.186 70.1875 520.283 -10.7416 549.912C-30.2849 557.079 -48.1995 565.819 -64.6109 576.044C-67.2417 577.705 -63.2328 580.414 -60.602 578.754C11.1819 533.743 111.654 524.479 204.234 519.672C296.063 514.952 393.904 512.592 475.585 479.381C518.179 461.988 550.375 435.506 589.838 415.229C630.678 394.166 679.161 384.29 729.397 380.707C778.004 377.211 827.113 378.784 875.971 379.308C933.724 379.833 991.477 379.308 1049.23 377.648C1159.1 374.326 1269.22 367.16 1377.83 355.623C1430.7 350.029 1483.44 342.863 1534.8 332.549C1567.25 326.082 1600.32 319.352 1630.77 309.301C1654.07 301.61 1686.77 288.5 1686.01 267.612C1685.39 253.628 1670.61 244.975 1653.32 240.256C1628.64 233.351 1602.58 229.156 1576.27 226.534C1528.16 221.639 1479.06 219.542 1430.57 217.269C1384.85 215.172 1337.12 213.599 1294.02 201.8C1284.5 199.265 1270.22 195.857 1264.96 189.302C1256.06 178.289 1278.86 167.889 1289.64 163.082C1309.56 154.254 1332.11 149.098 1354.78 145.078C1405.77 136.25 1457.13 128.035 1508.37 119.469C1619.87 100.941 1731.87 84.1601 1844.36 69.2148C1872.09 65.544 1899.86 61.9606 1927.67 58.4646C1931.18 58.0277 1929.68 54.3569 1926.17 54.7939Z" fill="#121C22"/>
</g>
<path style="mix-blend-mode:color-dodge" d="M494.705 36.1279L272.713 199.128C269.456 201.488 264.069 201.575 260.812 199.303C257.429 196.943 257.555 193.185 260.937 190.912L494.705 36.1279Z" fill="url(#paint5_linear_637_3853)"/>
<path style="mix-blend-mode:color-dodge" d="M378.071 117.409C391.351 126.761 374.814 153.418 341.114 177.016C307.29 200.526 269.08 212.063 255.675 202.711C242.396 193.36 258.933 166.703 292.632 143.192C326.457 119.594 364.667 108.058 378.071 117.409Z" fill="url(#paint6_radial_637_3853)"/>
</g>
<defs>
<linearGradient id="paint0_linear_637_3853" x1="1137.45" y1="873.086" x2="1342.93" y2="571.931" gradientUnits="userSpaceOnUse">
<stop stop-color="#FC9A0A"/>
<stop offset="1"/>
</linearGradient>
<radialGradient id="paint1_radial_637_3853" cx="0" cy="0" r="1" gradientUnits="userSpaceOnUse" gradientTransform="translate(1295.8 876.952) rotate(-34.3061) scale(90.7501 84.5005)">
<stop offset="0.001" stop-color="white"/>
<stop offset="1"/>
</radialGradient>
<linearGradient id="paint2_linear_637_3853" x1="1008.45" y1="1281.97" x2="736.747" y2="-1096.34" gradientUnits="userSpaceOnUse">
<stop offset="0.002"/>
<stop offset="1" stop-color="#20292F"/>
</linearGradient>
<linearGradient id="paint3_linear_637_3853" x1="495.305" y1="188.411" x2="3345.84" y2="645.745" gradientUnits="userSpaceOnUse">
<stop offset="0.002"/>
<stop offset="1" stop-color="#20292F"/>
</linearGradient>
<linearGradient id="paint4_linear_637_3853" x1="1945.83" y1="1094.74" x2="1908.49" y2="656.828" gradientUnits="userSpaceOnUse">
<stop/>
<stop offset="1" stop-color="#58595B"/>
</linearGradient>
<linearGradient id="paint5_linear_637_3853" x1="196.286" y1="160.12" x2="351.236" y2="-61.9836" gradientUnits="userSpaceOnUse">
<stop stop-color="#7BDAF1"/>
<stop offset="1"/>
</linearGradient>
<radialGradient id="paint6_radial_637_3853" cx="0" cy="0" r="1" gradientUnits="userSpaceOnUse" gradientTransform="translate(312.153 163.012) rotate(-34.9015) scale(66.8792 62.7669)">
<stop offset="0.001" stop-color="white"/>
<stop offset="1"/>
</radialGradient>
<clipPath id="clip0_637_3853">
<rect width="1993" height="967" fill="white"/>
</clipPath>
</defs>
</svg>
